<?xml version="1.0" encoding="UTF-8" standalone="no" ?>
<!DOCTYPE svg PUBLIC "-//W3C//DTD SVG 1.1//EN" "http://www.w3.org/Graphics/SVG/1.1/DTD/svg11.dtd">
<svg xmlns="http://www.w3.org/2000/svg" xmlns:xlink="http://www.w3.org/1999/xlink" version="1.1" width="500" height="500" viewBox="0 0 500 500" xml:space="preserve">
<desc>Created with Fabric.js 4.6.0</desc>
<defs>
</defs>
<g transform="matrix(2.46 0 0 2.46 250 224.62)" id="TgbrPfBGqsuDUsCoivCu5"  >
<path style="stroke: none; stroke-width: 1; stroke-dasharray: none; stroke-linecap: butt; stroke-dashoffset: 0; stroke-linejoin: miter; stroke-miterlimit: 4; fill: rgb(0,255,0); fill-opacity: 0.5; fill-rule: nonzero; opacity: 1;" vector-effect="non-scaling-stroke"  transform=" translate(-40, -40)" d="M 60 40 L 80 80 L 40 80 L 0 80 L 20 40 L 40 0 L 60 40 z" stroke-linecap="round" />
</g>
<g transform="matrix(1.35 0 0 1.35 250 116.29)" id="lM0s3iCdMaSrb0trtO1R0"  >
<path style="stroke: rgb(118,215,82); stroke-width: 0; stroke-dasharray: none; stroke-linecap: butt; stroke-dashoffset: 0; stroke-linejoin: miter; stroke-miterlimit: 4; fill: rgb(113,113,113); fill-rule: nonzero; opacity: 1;" vector-effect="non-scaling-stroke"  transform=" translate(0, 0)" d="M 0 -52.52101 C 28.9916 -52.52101 52.52101 -28.9916 52.52101 0 C 52.52101 28.9916 28.9916 52.52101 0 52.52101 C -28.9916 52.52101 -52.52101 28.9916 -52.52101 0 C -52.52101 -28.9916 -28.9916 -52.52101 0 -52.52101 z" stroke-linecap="round" />
</g>
<g transform="matrix(3.03 0 0 0.68 250 151.85)" id="vf0hRft57ziAzRyj2O4fw"  >
<path style="stroke: rgb(118,215,82); stroke-width: 0; stroke-dasharray: none; stroke-linecap: butt; stroke-dashoffset: 0; stroke-linejoin: miter; stroke-miterlimit: 4; fill: rgb(113,113,113); fill-rule: nonzero; opacity: 1;" vector-effect="non-scaling-stroke"  transform=" translate(0, 0)" d="M 0 -52.52101 C 28.9916 -52.52101 52.52101 -28.9916 52.52101 0 C 52.52101 28.9916 28.9916 52.52101 0 52.52101 C -28.9916 52.52101 -52.52101 28.9916 -52.52101 0 C -52.52101 -28.9916 -28.9916 -52.52101 0 -52.52101 z" stroke-linecap="round" />
</g>
<g transform="matrix(1.65 0 0 0.47 250 323.39)" id="oWw_LtN34vIug4EYGZptl"  >
<path style="stroke: rgb(192,120,100); stroke-width: 0; stroke-dasharray: none; stroke-linecap: butt; stroke-dashoffset: 0; stroke-linejoin: miter; stroke-miterlimit: 4; fill: rgb(0,255,0); fill-opacity: 0.5; fill-rule: nonzero; opacity: 1;" vector-effect="non-scaling-stroke"  transform=" translate(0, 0)" d="M 0 -59.73025 C 32.9711 -59.73025 59.73025 -32.97109999999999 59.73025 0 C 59.73025 32.9711 32.97109999999999 59.73025 0 59.73025 C -32.9711 59.73025 -59.73025 32.97109999999999 -59.73025 0 C -59.73025 -32.9711 -32.97109999999999 -59.73025 0 -59.73025 z" stroke-linecap="round" />
</g>
</svg>